<svg xmlns="http://www.w3.org/2000/svg" viewBox="0 0 600 400"><defs><linearGradient id="s" x2="0" y2="1"><stop stop-color="#172d28"/><stop offset=".5" stop-color="#17202a"/><stop offset="1" stop-color="#080b0d"/></linearGradient><radialGradient id="g"><stop stop-color="#69d596" stop-opacity=".28"/><stop offset="1" stop-color="#69d596" stop-opacity="0"/></radialGradient></defs><rect width="600" height="400" fill="url(#s)"/><circle cx="150" cy="105" r="110" fill="url(#g)"/><path d="M0 320c85-80 124-24 191-83s124-22 184 16 131-19 225-86v233H0z" fill="#090e0d"/><g fill="#101917"><path d="M58 324 92 72l24 77-9 175zM136 323l27-274 32 98-15 176zM426 324l26-238 28 62-11 176zM500 324l36-286 24 103-9 183z"/></g><g stroke="#477861" stroke-width="5" fill="none" opacity=".55"><path d="M100 120c44 12 56 48 87 58M169 99c-37 30-44 67-72 89M450 131c-39 29-48 73-84 95M540 93c-49 33-63 78-87 113"/></g><path d="M278 329c-18-89 8-169 47-216 37 50 58 129 43 216z" fill="#14241e" stroke="#79b58e" stroke-opacity=".25"/><circle cx="326" cy="179" r="10" fill="#7de5a0" opacity=".55"/><circle cx="326" cy="179" r="30" fill="url(#g)"/></svg>