<svg xmlns="http://www.w3.org/2000/svg" viewBox="0 0 600 400"><defs><linearGradient id="s" x2="0" y2="1"><stop stop-color="#28405d"/><stop offset=".52" stop-color="#1c2737"/><stop offset="1" stop-color="#090c12"/></linearGradient><radialGradient id="g"><stop stop-color="#a8d9ff" stop-opacity=".36"/><stop offset="1" stop-color="#a8d9ff" stop-opacity="0"/></radialGradient></defs><rect width="600" height="400" fill="url(#s)"/><circle cx="451" cy="79" r="105" fill="url(#g)"/><path d="M0 287 106 113l66 91 86-165 90 178 69-119 83 123 100-104v283H0z" fill="#172231"/><path d="M0 318 103 239l72 42 83-65 98 73 84-57 160 78v90H0z" fill="#0d1219"/><path d="m90 128 16-15 13 18 53 73-34-20-24-36-28 26-31 22zM258 39l18 36 26-9 46 151-51-45-29 30-42 14z" fill="#d7efff" opacity=".22"/><path d="M358 307V180h83v127M347 202h105l-13-35h-77z" fill="#1a2430" stroke="#8bbbe0" stroke-opacity=".32"/><rect x="381" y="230" width="37" height="77" fill="#0a0e13"/><g fill="#d8f3ff" opacity=".55"><circle cx="81" cy="83" r="2"/><circle cx="162" cy="61" r="2"/><circle cx="325" cy="92" r="1.5"/><circle cx="521" cy="124" r="2"/></g></svg>