<svg xmlns="http://www.w3.org/2000/svg" viewBox="0 0 260 380"><defs><linearGradient id="robe" x1="0" y1="0" x2="1" y2="1"><stop stop-color="#7853a2"/><stop offset=".55" stop-color="#382348"/><stop offset="1" stop-color="#120d18"/></linearGradient><linearGradient id="skin" x1="0" y1="0" x2="1" y2="1"><stop stop-color="#c9958b"/><stop offset="1" stop-color="#69455a"/></linearGradient><radialGradient id="a"><stop stop-color="#c78cff" stop-opacity=".55"/><stop offset="1" stop-color="#7f4fc4" stop-opacity="0"/></radialGradient><filter id="g"><feGaussianBlur stdDeviation="8"/></filter></defs><ellipse cx="130" cy="180" rx="110" ry="140" fill="url(#a)" filter="url(#g)"/><circle cx="130" cy="116" r="80" fill="none" stroke="#bd86ef" stroke-opacity=".3"/><circle cx="130" cy="116" r="60" fill="none" stroke="#e0bdff" stroke-opacity=".12" stroke-dasharray="4 8"/><path d="M44 351 66 172 98 143h64l32 29 22 179z" fill="url(#robe)" stroke="#c392ee" stroke-opacity=".28"/><path d="M101 70 127 45l31 6 17 26-8 55-34 25-37-25-8-47z" fill="url(#skin)"/><path d="M91 88 104 43l30-20 43 25 15 50-22-24-15-26-12 30-40 6-6 29z" fill="#291831"/><path d="M108 103h51" stroke="#d9b1ff" stroke-width="2"/><circle cx="119" cy="103" r="3" fill="#d9b1ff"/><circle cx="149" cy="103" r="3" fill="#d9b1ff"/><path d="M97 160 65 170 40 222l31 18 30-39zM164 159l35 13 25 50-33 19-29-39z" fill="#372343" stroke="#c18ee8" stroke-opacity=".32"/><path d="M105 160h54l9 170H93z" fill="url(#robe)"/><path d="m132 171 15 24-15 22-15-22z" fill="#c986ff" stroke="#f0d5ff" stroke-width="2"/><circle cx="132" cy="194" r="25" fill="url(#a)"/><path d="M205 51h7v261h-7z" fill="#8b69a8"/><path d="m209 29 21 25-21 28-21-28z" fill="#9d64dd" stroke="#e2c4ff" stroke-width="2"/><circle cx="209" cy="54" r="24" fill="url(#a)" filter="url(#g)"/><path d="M183 291h51v8h-51z" fill="#5b3b70"/><path d="M82 345h104" stroke="#d0a0f2" stroke-opacity=".2"/><path d="M58 122c14-19 24-19 36-7M170 115c13-10 24-8 34 5" fill="none" stroke="#b075e8" stroke-opacity=".28"/></svg>